<svg width="247" height="54" viewBox="0 0 247 54" fill="none" xmlns="http://www.w3.org/2000/svg">
<path fill-rule="evenodd" clip-rule="evenodd" d="M111.176 13.5081C99.9884 12.5386 94.7607 18.8065 92.9676 24.7002C88.9016 38.0524 102.539 42.1431 107.085 37.0404L106.731 39.0645H114.224L118.525 14.9794L120.318 4.91846H112.793L111.176 13.4996V13.5081ZM99.7948 26.2225C100.813 22.506 104.248 18.3047 110.191 19.5039L108.701 27.9404C107.262 36.0709 97.5303 34.438 99.7948 26.2225Z" fill="white"/>
<path fill-rule="evenodd" clip-rule="evenodd" d="M146.661 15.2627C130.305 10.3776 123.222 17.8775 121.066 24.8646C116.999 38.0651 130.642 42.1094 135.19 37.0646L134.845 39.0657H142.34L146.661 15.2627ZM127.905 26.3612C128.924 22.6953 132.36 18.5418 138.306 19.7273L136.815 28.068C135.384 36.0976 125.639 34.4917 127.905 26.3612Z" fill="white"/>
<path fill-rule="evenodd" clip-rule="evenodd" d="M151.58 13.8285L147.1 39.1632H154.52L156.904 25.834C157.62 20.6816 163.734 18.4782 167.028 20.0365L168.173 13.7112C160.938 13.4766 158.512 16.7608 158.529 16.6602L159.035 13.8285H151.58Z" fill="white"/>
<path fill-rule="evenodd" clip-rule="evenodd" d="M170.654 13.6992L175.182 39.0068C173.389 41.8113 170.62 45.0693 165.696 42.7014L164.661 48.5455C172.539 51.3836 179.583 45.2792 182.992 39.0068L196.711 13.6992H188.934L180.391 29.5606L177.715 13.6992H170.662H170.654Z" fill="white"/>
<path fill-rule="evenodd" clip-rule="evenodd" d="M200.04 13.6992L198.933 19.4957H209.392L195.942 36.0076L195.393 39.1632L215.83 39.1547L216.802 33.662H207.154L219.7 17.7745L220.418 13.6992H200.04Z" fill="white"/>
<path fill-rule="evenodd" clip-rule="evenodd" d="M246.321 15.2627C229.973 10.3776 222.889 17.8775 220.725 24.8646C216.665 38.0651 230.301 42.1094 234.85 37.0646L234.496 39.0657H241.992L246.313 15.2627H246.321ZM227.564 26.3612C228.591 22.6953 232.019 18.5418 237.966 19.7273L236.475 28.068C235.043 36.1061 225.307 34.4917 227.564 26.3612Z" fill="white"/>
<path fill-rule="evenodd" clip-rule="evenodd" d="M34.7423 24.5387C33.0711 34.7065 36.8894 54.1056 47.952 53.7226C48.4278 51.7492 48.6776 49.6755 48.6776 47.5489C48.6776 37.44 42.9917 28.7036 34.7423 24.5387ZM35.9021 24.0497C49.0642 23.3664 60.1922 14.7479 64.8611 2.74794C53.9175 -7.48471 37.4544 13.3812 34.891 24.0851C35.2241 24.0674 35.5631 24.0556 35.9021 24.0497Z" fill="#44AC34"/>
<path fill-rule="evenodd" clip-rule="evenodd" d="M48.6939 47.573C48.6939 49.6931 48.4456 51.7545 47.9727 53.7278C48.0496 53.7278 48.1205 53.7219 48.1973 53.7161H48.3215C57.3474 53.2286 61.686 44.2431 57.9148 36.5555C53.7004 27.9811 43.5455 24.7333 34.8565 24.5807C34.8565 24.5924 34.8506 24.61 34.8506 24.6335C43.049 28.7856 48.6998 37.501 48.6998 47.573M64.7774 2.90968C65.0256 3.13872 65.268 3.38539 65.5103 3.64967C70.9069 9.5578 67.4432 20.5636 62.7381 26.6068C61.219 28.3334 59.8654 29.2966 57.2587 29.6431C54.9594 29.9485 53.127 29.326 51.5015 28.4803C46.4714 25.8551 41.9259 24.2459 35.9973 24.1461C49.0781 23.4589 60.1373 14.8669 64.7774 2.90381" fill="#44AC34"/>
<path fill-rule="evenodd" clip-rule="evenodd" d="M33.5182 24.5387C25.3924 28.7036 19.7957 37.4459 19.7957 47.5489C19.7957 49.6755 20.0475 51.7492 20.5158 53.7226C31.4048 54.1056 35.1574 34.7065 33.5123 24.5387M33.3718 24.0851C30.8486 13.3812 14.644 -7.48471 3.87207 2.74794C8.46769 14.742 19.4211 23.3664 32.3708 24.0497C32.7045 24.0497 33.0323 24.0674 33.366 24.0851" fill="#44AC34"/>
<path fill-rule="evenodd" clip-rule="evenodd" d="M19.8334 47.5723C19.8334 37.4991 25.5658 28.7886 33.8827 24.6301C33.8827 24.6125 33.8827 24.5949 33.8767 24.5773C25.0562 24.73 14.7546 27.9781 10.4852 36.5535C6.65358 44.242 11.0548 53.2286 20.2112 53.7102H20.3371C20.415 53.7161 20.493 53.7219 20.5709 53.7278C20.0912 51.7543 19.8334 49.6927 19.8334 47.5723ZM32.7134 24.1426C26.7051 24.2425 22.088 25.8518 16.9852 28.4773C15.3422 29.329 13.4773 29.9457 11.1508 29.6403C8.50643 29.2938 7.13328 28.3305 5.59224 26.6037C0.813205 20.5598 -2.69462 9.55269 2.77998 3.64388C3.01983 3.37957 3.27168 3.13288 3.51752 2.90381C8.2246 14.8624 19.4436 23.4613 32.7074 24.1485" fill="#44AC34"/>
</svg>
