<svg width="201" height="44" viewBox="0 0 201 44" fill="none" xmlns="http://www.w3.org/2000/svg">
<path fill-rule="evenodd" clip-rule="evenodd" d="M90.4163 10.9858C81.3176 10.1973 77.0661 15.2948 75.6078 20.0879C72.3011 30.9469 83.392 34.2737 87.089 30.1238L86.8015 31.7699H92.8947L96.3931 12.1823L97.8514 4.00006H91.7308L90.4163 10.9788V10.9858ZM81.1602 21.326C81.9886 18.3034 84.7818 14.8867 89.6153 15.8619L88.4035 22.7231C87.2328 29.3353 79.3185 28.0073 81.1602 21.326Z" fill="#3D3D3B"/>
<path fill-rule="evenodd" clip-rule="evenodd" d="M119.275 12.4126C105.973 8.43975 100.213 14.5392 98.4597 20.2215C95.1515 30.9571 106.247 34.2462 109.946 30.1434L109.665 31.7708H115.761L119.275 12.4126ZM104.021 21.4387C104.85 18.4574 107.645 15.0794 112.48 16.0436L111.268 22.8268C110.103 29.357 102.179 28.051 104.021 21.4387Z" fill="#3D3D3B"/>
<path fill-rule="evenodd" clip-rule="evenodd" d="M123.276 11.2462L119.632 31.8501H125.666L127.605 21.0099C128.187 16.8197 133.16 15.0277 135.839 16.295L136.77 11.1509C130.886 10.9601 128.913 13.631 128.927 13.5492L129.338 11.2462H123.276Z" fill="#3D3D3B"/>
<path fill-rule="evenodd" clip-rule="evenodd" d="M138.787 11.1411L142.47 31.723C141.012 34.0038 138.76 36.6534 134.756 34.7277L133.914 39.4805C140.321 41.7886 146.05 36.8241 148.822 31.723L159.979 11.1411H153.654L146.707 24.0406L144.53 11.1411H138.794H138.787Z" fill="#3D3D3B"/>
<path fill-rule="evenodd" clip-rule="evenodd" d="M162.686 11.1411L161.786 15.8552H170.293L159.354 29.2838L158.907 31.8501L175.528 31.8433L176.318 27.3762H168.472L178.675 14.4554L179.259 11.1411H162.686Z" fill="#3D3D3B"/>
<path fill-rule="evenodd" clip-rule="evenodd" d="M200.325 12.4126C187.03 8.43975 181.269 14.5392 179.509 20.2215C176.207 30.9571 187.297 34.2462 190.996 30.1434L190.708 31.7708H196.805L200.319 12.4126H200.325ZM185.071 21.4387C185.906 18.4573 188.694 15.0794 193.53 16.0436L192.318 22.8268C191.153 29.3639 183.235 28.051 185.071 21.4387Z" fill="#3D3D3B"/>
<path fill-rule="evenodd" clip-rule="evenodd" d="M28.255 19.9565C26.8958 28.2257 30.0011 44.0023 38.998 43.6909C39.3849 42.0859 39.5881 40.3995 39.5881 38.67C39.5881 30.4487 34.9639 23.3437 28.255 19.9565ZM29.1982 19.5589C39.9025 19.0031 48.9525 11.994 52.7496 2.23478C43.8495 -6.08711 30.4606 10.8825 28.3759 19.5876C28.6468 19.5732 28.9225 19.5637 29.1982 19.5589Z" fill="#6FB74D"/>
<path fill-rule="evenodd" clip-rule="evenodd" d="M39.6013 38.69C39.6013 40.4142 39.3994 42.0906 39.0148 43.6955C39.0773 43.6955 39.135 43.6907 39.1975 43.6859H39.2985C46.639 43.2895 50.1674 35.9818 47.1004 29.7297C43.673 22.7564 35.4143 20.1152 28.3478 19.991C28.3478 20.0005 28.343 20.0149 28.343 20.034C35.0105 23.4108 39.6061 30.4987 39.6061 38.69M52.6815 2.36666C52.8834 2.55293 53.0805 2.75354 53.2776 2.96847C57.6665 7.77336 54.8495 16.724 51.0231 21.6388C49.7876 23.043 48.6868 23.8263 46.5669 24.1081C44.6969 24.3565 43.2067 23.8502 41.8847 23.1624C37.7938 21.0274 34.0972 19.7187 29.2756 19.6375C39.9138 19.0787 48.9079 12.0911 52.6815 2.36189" fill="#44AC34"/>
<path fill-rule="evenodd" clip-rule="evenodd" d="M27.2594 19.9565C20.651 23.3437 16.0994 30.4535 16.0994 38.67C16.0994 40.3995 16.3041 42.0859 16.685 43.6909C25.5407 44.0023 28.5925 28.2257 27.2547 19.9565M27.1404 19.5876C25.0884 10.8825 11.9096 -6.08711 3.14917 2.23478C6.88664 11.9892 15.7947 19.0031 26.3263 19.5589C26.5976 19.5589 26.8643 19.5732 27.1356 19.5876" fill="#6FB74D"/>
<path fill-rule="evenodd" clip-rule="evenodd" d="M16.1299 38.6894C16.1299 30.4972 20.7919 23.4132 27.5557 20.0312C27.5557 20.0169 27.5557 20.0026 27.5508 19.9882C20.3774 20.1124 11.9994 22.754 8.52728 29.7281C5.41115 35.9809 8.99056 43.2894 16.4371 43.6811H16.5395C16.6029 43.6859 16.6663 43.6907 16.7297 43.6955C16.3396 42.0905 16.1299 40.4138 16.1299 38.6894ZM26.6048 19.6348C21.7184 19.716 17.9635 21.0248 13.8135 23.16C12.4773 23.8527 10.9607 24.3542 9.06859 24.1058C6.91801 23.824 5.80127 23.0406 4.54799 21.6362C0.661354 16.7209 -2.19145 7.76921 2.26087 2.96376C2.45594 2.74881 2.66075 2.54818 2.86069 2.36189C6.68881 12.0874 15.8129 19.0807 26.5999 19.6395" fill="#44AC34"/>
</svg>
