<svg width="32" height="32" viewBox="0 0 32 32" fill="none" xmlns="http://www.w3.org/2000/svg">
<path d="M8.45095 19.7926C8.60723 18.4987 9.1379 17.7743 10.1379 17.0317C11.5688 16.0259 13.3561 16.5948 13.3561 16.5948V13.2197C13.7907 13.2085 14.2254 13.2343 14.6551 13.2966V17.6401C14.6551 17.6401 12.8683 17.0712 11.4375 18.0775C10.438 18.8196 9.90623 19.5446 9.7505 20.8385C9.74562 21.5411 9.87747 22.4595 10.4847 23.2536C10.3345 23.1766 10.1815 23.0889 10.0256 22.9905C8.68807 22.0923 8.44444 20.7449 8.45095 19.7926ZM22.0352 6.97898C21.0509 5.90039 20.6786 4.81139 20.5441 4.04639H21.7823C21.7823 4.04639 21.5354 6.05224 23.3347 8.02482L23.3597 8.05134C22.8747 7.7463 22.43 7.38624 22.0352 6.97898ZM28 10.0369V14.293C28 14.293 26.42 14.2312 25.2507 13.9337C23.6179 13.5176 22.5685 12.8795 22.5685 12.8795C22.5685 12.8795 21.8436 12.4245 21.785 12.3928V21.1817C21.785 21.6711 21.651 22.8932 21.2424 23.9125C20.709 25.246 19.8859 26.1212 19.7345 26.3001C19.7345 26.3001 18.7334 27.4832 16.9672 28.28C15.3752 28.9987 13.9774 28.9805 13.5596 28.9987C13.5596 28.9987 11.1434 29.0944 8.96915 27.6814C8.49898 27.3699 8.06011 27.0172 7.6582 26.6277L7.66906 26.6355C9.84383 28.0485 12.2595 27.9528 12.2595 27.9528C12.6779 27.9346 14.0756 27.9528 15.6671 27.2341C17.4317 26.4374 18.4344 25.2543 18.4344 25.2543C18.5842 25.0754 19.4111 24.2001 19.9423 22.8662C20.3498 21.8474 20.4849 20.6247 20.4849 20.1354V11.3475C20.5435 11.3797 21.2679 11.8347 21.2679 11.8347C21.2679 11.8347 22.3179 12.4734 23.9506 12.8889C25.1204 13.1864 26.7 13.2483 26.7 13.2483V9.91314C27.2404 10.0343 27.7011 10.0671 28 10.0369Z" fill="white"/>
<path d="M26.7004 9.91314V13.2472C26.7004 13.2472 25.1208 13.1853 23.951 12.8879C22.3183 12.4718 21.2683 11.8337 21.2683 11.8337C21.2683 11.8337 20.5439 11.3787 20.4853 11.3464V20.1364C20.4853 20.6258 20.3513 21.8484 19.9427 22.8672C19.4093 24.2012 18.5862 25.0764 18.4348 25.2553C18.4348 25.2553 17.4332 26.4384 15.6675 27.2352C14.076 27.9539 12.6783 27.9357 12.2599 27.9539C12.2599 27.9539 9.84424 28.0496 7.66946 26.6366L7.65861 26.6288C7.429 26.4064 7.21287 26.1717 7.01128 25.9257C6.31728 25.0795 5.89188 24.0789 5.78498 23.7934C5.7848 23.7922 5.7848 23.791 5.78498 23.7898C5.61298 23.2937 5.2516 22.1022 5.30098 20.9482C5.38834 18.9122 6.10458 17.6625 6.29395 17.3494C6.79549 16.4957 7.44779 15.7318 8.22184 15.0919C8.90489 14.5396 9.67911 14.1002 10.5127 13.7917C11.4139 13.4295 12.3789 13.2353 13.356 13.2197V16.5948C13.356 16.5948 11.5686 16.028 10.1383 17.0317C9.13831 17.7743 8.60763 18.4987 8.45136 19.7926C8.44485 20.7449 8.68848 22.0923 10.0249 22.991C10.1808 23.0898 10.3339 23.1775 10.484 23.2541C10.7175 23.5576 11.0016 23.8221 11.325 24.0368C12.6305 24.8632 13.7244 24.9209 15.1233 24.3842C16.056 24.0254 16.7582 23.2167 17.0837 22.3206C17.2883 21.7611 17.2856 21.1978 17.2856 20.6154V4.04639H20.5412C20.6758 4.81139 21.048 5.90039 22.0323 6.97898C22.4272 7.38624 22.8719 7.7463 23.3568 8.05134C23.5001 8.19955 24.2326 8.93231 25.1729 9.38216C25.6592 9.61469 26.1717 9.79285 26.7004 9.91314Z" fill="white"/>
<path d="M4.48926 22.7568V22.7594L4.57004 22.9784C4.56076 22.9529 4.53074 22.8754 4.48926 22.7568Z" fill="white"/>
</svg>
